<mxfile host="65bd71144e">
    <diagram id="yu0OQrqvoiVsUhACBv0z" name="Page-1">
        <mxGraphModel dx="1778" dy="1245" grid="1" gridSize="10" guides="1" tooltips="1" connect="1" arrows="1" fold="1" page="1" pageScale="1" pageWidth="827" pageHeight="1169" math="0" shadow="0">
            <root>
                <mxCell id="0"/>
                <mxCell id="1" parent="0"/>
                <mxCell id="2" value="Language Recommender" style="swimlane;startSize=20;horizontal=1;containerType=tree;newEdgeStyle={&quot;edgeStyle&quot;:&quot;elbowEdgeStyle&quot;,&quot;startArrow&quot;:&quot;none&quot;,&quot;endArrow&quot;:&quot;none&quot;};" vertex="1" parent="1">
                    <mxGeometry x="876" y="40" width="730" height="190" as="geometry">
                        <mxRectangle x="200" y="260" width="90" height="30" as="alternateBounds"/>
                    </mxGeometry>
                </mxCell>
                <mxCell id="26" style="edgeStyle=elbowEdgeStyle;html=1;startArrow=none;endArrow=none;exitX=0.5;exitY=1;exitDx=0;exitDy=0;entryX=0;entryY=0.5;entryDx=0;entryDy=0;" edge="1" parent="2" source="5" target="25">
                    <mxGeometry relative="1" as="geometry">
                        <Array as="points">
                            <mxPoint x="50" y="140"/>
                        </Array>
                    </mxGeometry>
                </mxCell>
                <UserObject label="TF-IDF" treeRoot="1" id="5">
                    <mxCell style="whiteSpace=wrap;html=1;align=center;treeFolding=1;treeMoving=1;newEdgeStyle={&quot;edgeStyle&quot;:&quot;elbowEdgeStyle&quot;,&quot;startArrow&quot;:&quot;none&quot;,&quot;endArrow&quot;:&quot;none&quot;};rounded=1;" vertex="1" parent="2">
                        <mxGeometry x="10" y="40" width="80" height="30" as="geometry"/>
                    </mxCell>
                </UserObject>
                <mxCell id="28" style="edgeStyle=elbowEdgeStyle;html=1;startArrow=none;endArrow=none;exitX=0.5;exitY=1;exitDx=0;exitDy=0;entryX=0.116;entryY=0;entryDx=0;entryDy=0;entryPerimeter=0;" edge="1" parent="2" source="15" target="25">
                    <mxGeometry relative="1" as="geometry">
                        <Array as="points">
                            <mxPoint x="230" y="100"/>
                        </Array>
                    </mxGeometry>
                </mxCell>
                <UserObject label="Word2Vec" treeRoot="1" id="15">
                    <mxCell style="whiteSpace=wrap;html=1;align=center;treeFolding=1;treeMoving=1;newEdgeStyle={&quot;edgeStyle&quot;:&quot;elbowEdgeStyle&quot;,&quot;startArrow&quot;:&quot;none&quot;,&quot;endArrow&quot;:&quot;none&quot;};rounded=1;" vertex="1" parent="2">
                        <mxGeometry x="190" y="40" width="80" height="30" as="geometry"/>
                    </mxCell>
                </UserObject>
                <mxCell id="29" style="edgeStyle=elbowEdgeStyle;html=1;startArrow=none;endArrow=none;exitX=0.5;exitY=1;exitDx=0;exitDy=0;entryX=0.355;entryY=0;entryDx=0;entryDy=0;entryPerimeter=0;" edge="1" parent="2" source="16" target="25">
                    <mxGeometry relative="1" as="geometry"/>
                </mxCell>
                <UserObject label="FastText" treeRoot="1" id="16">
                    <mxCell style="whiteSpace=wrap;html=1;align=center;treeFolding=1;treeMoving=1;newEdgeStyle={&quot;edgeStyle&quot;:&quot;elbowEdgeStyle&quot;,&quot;startArrow&quot;:&quot;none&quot;,&quot;endArrow&quot;:&quot;none&quot;};rounded=1;" vertex="1" parent="2">
                        <mxGeometry x="280" y="40" width="80" height="30" as="geometry"/>
                    </mxCell>
                </UserObject>
                <mxCell id="30" style="edgeStyle=elbowEdgeStyle;html=1;startArrow=none;endArrow=none;exitX=0.5;exitY=1;exitDx=0;exitDy=0;entryX=0.652;entryY=0;entryDx=0;entryDy=0;entryPerimeter=0;" edge="1" parent="2" source="17" target="25">
                    <mxGeometry relative="1" as="geometry"/>
                </mxCell>
                <UserObject label="GloVe" treeRoot="1" id="17">
                    <mxCell style="whiteSpace=wrap;html=1;align=center;treeFolding=1;treeMoving=1;newEdgeStyle={&quot;edgeStyle&quot;:&quot;elbowEdgeStyle&quot;,&quot;startArrow&quot;:&quot;none&quot;,&quot;endArrow&quot;:&quot;none&quot;};rounded=1;" vertex="1" parent="2">
                        <mxGeometry x="370" y="40" width="80" height="30" as="geometry"/>
                    </mxCell>
                </UserObject>
                <mxCell id="31" style="edgeStyle=elbowEdgeStyle;html=1;startArrow=none;endArrow=none;exitX=0.5;exitY=1;exitDx=0;exitDy=0;entryX=0.871;entryY=0;entryDx=0;entryDy=0;entryPerimeter=0;" edge="1" parent="2" source="18" target="25">
                    <mxGeometry relative="1" as="geometry">
                        <Array as="points">
                            <mxPoint x="500" y="120"/>
                        </Array>
                    </mxGeometry>
                </mxCell>
                <UserObject label="BERT" treeRoot="1" id="18">
                    <mxCell style="whiteSpace=wrap;html=1;align=center;treeFolding=1;treeMoving=1;newEdgeStyle={&quot;edgeStyle&quot;:&quot;elbowEdgeStyle&quot;,&quot;startArrow&quot;:&quot;none&quot;,&quot;endArrow&quot;:&quot;none&quot;};rounded=1;" vertex="1" parent="2">
                        <mxGeometry x="460" y="40" width="80" height="30" as="geometry"/>
                    </mxCell>
                </UserObject>
                <mxCell id="32" style="edgeStyle=elbowEdgeStyle;html=1;startArrow=none;endArrow=none;exitX=0.5;exitY=1;exitDx=0;exitDy=0;entryX=1;entryY=0.25;entryDx=0;entryDy=0;" edge="1" parent="2" source="19" target="25">
                    <mxGeometry relative="1" as="geometry">
                        <Array as="points">
                            <mxPoint x="590" y="120"/>
                        </Array>
                    </mxGeometry>
                </mxCell>
                <UserObject label="SciBERT" treeRoot="1" id="19">
                    <mxCell style="whiteSpace=wrap;html=1;align=center;treeFolding=1;treeMoving=1;newEdgeStyle={&quot;edgeStyle&quot;:&quot;elbowEdgeStyle&quot;,&quot;startArrow&quot;:&quot;none&quot;,&quot;endArrow&quot;:&quot;none&quot;};rounded=1;" vertex="1" parent="2">
                        <mxGeometry x="550" y="40" width="80" height="30" as="geometry"/>
                    </mxCell>
                </UserObject>
                <UserObject label="Longformer" treeRoot="1" id="20">
                    <mxCell style="whiteSpace=wrap;html=1;align=center;treeFolding=1;treeMoving=1;newEdgeStyle={&quot;edgeStyle&quot;:&quot;elbowEdgeStyle&quot;,&quot;startArrow&quot;:&quot;none&quot;,&quot;endArrow&quot;:&quot;none&quot;};rounded=1;" vertex="1" parent="2">
                        <mxGeometry x="640" y="40" width="80" height="30" as="geometry"/>
                    </mxCell>
                </UserObject>
                <mxCell id="27" style="edgeStyle=elbowEdgeStyle;html=1;startArrow=none;endArrow=none;exitX=0.5;exitY=1;exitDx=0;exitDy=0;entryX=0;entryY=0.25;entryDx=0;entryDy=0;" edge="1" parent="2" source="24" target="25">
                    <mxGeometry relative="1" as="geometry">
                        <Array as="points">
                            <mxPoint x="140" y="120"/>
                        </Array>
                    </mxGeometry>
                </mxCell>
                <UserObject label="BM25" treeRoot="1" id="24">
                    <mxCell style="whiteSpace=wrap;html=1;align=center;treeFolding=1;treeMoving=1;newEdgeStyle={&quot;edgeStyle&quot;:&quot;elbowEdgeStyle&quot;,&quot;startArrow&quot;:&quot;none&quot;,&quot;endArrow&quot;:&quot;none&quot;};rounded=1;" vertex="1" parent="2">
                        <mxGeometry x="100" y="40" width="80" height="30" as="geometry"/>
                    </mxCell>
                </UserObject>
                <mxCell id="25" value="Choose One" style="rounded=1;whiteSpace=wrap;html=1;" vertex="1" parent="2">
                    <mxGeometry x="210" y="120" width="310" height="40" as="geometry"/>
                </mxCell>
                <mxCell id="33" style="edgeStyle=elbowEdgeStyle;html=1;startArrow=none;endArrow=none;exitX=0.5;exitY=1;exitDx=0;exitDy=0;entryX=1;entryY=0.5;entryDx=0;entryDy=0;" edge="1" parent="2" source="20" target="25">
                    <mxGeometry relative="1" as="geometry">
                        <mxPoint x="530" y="140" as="targetPoint"/>
                        <Array as="points">
                            <mxPoint x="680" y="140"/>
                        </Array>
                    </mxGeometry>
                </mxCell>
                <mxCell id="34" value="Citation Recommender" style="swimlane;startSize=20;horizontal=1;containerType=tree;newEdgeStyle={&quot;edgeStyle&quot;:&quot;elbowEdgeStyle&quot;,&quot;startArrow&quot;:&quot;none&quot;,&quot;endArrow&quot;:&quot;none&quot;};" vertex="1" parent="1">
                    <mxGeometry x="40" y="40" width="730" height="190" as="geometry">
                        <mxRectangle x="200" y="260" width="90" height="30" as="alternateBounds"/>
                    </mxGeometry>
                </mxCell>
                <mxCell id="53" style="edgeStyle=elbowEdgeStyle;html=1;startArrow=none;endArrow=none;exitX=0.5;exitY=1;exitDx=0;exitDy=0;entryX=0;entryY=0.5;entryDx=0;entryDy=0;" edge="1" parent="34" source="36" target="52">
                    <mxGeometry relative="1" as="geometry">
                        <Array as="points">
                            <mxPoint x="85" y="120"/>
                        </Array>
                    </mxGeometry>
                </mxCell>
                <UserObject label="Publication Date" treeRoot="1" id="36">
                    <mxCell style="whiteSpace=wrap;html=1;align=center;treeFolding=1;treeMoving=1;newEdgeStyle={&quot;edgeStyle&quot;:&quot;elbowEdgeStyle&quot;,&quot;startArrow&quot;:&quot;none&quot;,&quot;endArrow&quot;:&quot;none&quot;};rounded=1;" vertex="1" parent="34">
                        <mxGeometry x="20" y="40" width="130" height="30" as="geometry"/>
                    </mxCell>
                </UserObject>
                <mxCell id="55" style="edgeStyle=elbowEdgeStyle;html=1;startArrow=none;endArrow=none;exitX=0.5;exitY=1;exitDx=0;exitDy=0;entryX=0.5;entryY=0;entryDx=0;entryDy=0;" edge="1" parent="34" source="38" target="52">
                    <mxGeometry relative="1" as="geometry"/>
                </mxCell>
                <UserObject label="Author Citation Count" treeRoot="1" id="38">
                    <mxCell style="whiteSpace=wrap;html=1;align=center;treeFolding=1;treeMoving=1;newEdgeStyle={&quot;edgeStyle&quot;:&quot;elbowEdgeStyle&quot;,&quot;startArrow&quot;:&quot;none&quot;,&quot;endArrow&quot;:&quot;none&quot;};rounded=1;" vertex="1" parent="34">
                        <mxGeometry x="300" y="40" width="130" height="30" as="geometry"/>
                    </mxCell>
                </UserObject>
                <mxCell id="56" style="edgeStyle=elbowEdgeStyle;html=1;startArrow=none;endArrow=none;exitX=0.5;exitY=1;exitDx=0;exitDy=0;entryX=0.75;entryY=0;entryDx=0;entryDy=0;" edge="1" parent="34" source="40" target="52">
                    <mxGeometry relative="1" as="geometry">
                        <Array as="points">
                            <mxPoint x="505" y="90"/>
                        </Array>
                    </mxGeometry>
                </mxCell>
                <UserObject label="Co-Citation Analysis" treeRoot="1" id="40">
                    <mxCell style="whiteSpace=wrap;html=1;align=center;treeFolding=1;treeMoving=1;newEdgeStyle={&quot;edgeStyle&quot;:&quot;elbowEdgeStyle&quot;,&quot;startArrow&quot;:&quot;none&quot;,&quot;endArrow&quot;:&quot;none&quot;};rounded=1;" vertex="1" parent="34">
                        <mxGeometry x="440" y="40" width="130" height="30" as="geometry"/>
                    </mxCell>
                </UserObject>
                <UserObject label="Bibliographic Coupling" treeRoot="1" id="42">
                    <mxCell style="whiteSpace=wrap;html=1;align=center;treeFolding=1;treeMoving=1;newEdgeStyle={&quot;edgeStyle&quot;:&quot;elbowEdgeStyle&quot;,&quot;startArrow&quot;:&quot;none&quot;,&quot;endArrow&quot;:&quot;none&quot;};rounded=1;" vertex="1" parent="34">
                        <mxGeometry x="580" y="40" width="130" height="30" as="geometry"/>
                    </mxCell>
                </UserObject>
                <mxCell id="54" style="edgeStyle=elbowEdgeStyle;html=1;startArrow=none;endArrow=none;exitX=0.5;exitY=1;exitDx=0;exitDy=0;entryX=0.25;entryY=0;entryDx=0;entryDy=0;" edge="1" parent="34" source="49" target="52">
                    <mxGeometry relative="1" as="geometry">
                        <Array as="points">
                            <mxPoint x="225" y="100"/>
                        </Array>
                    </mxGeometry>
                </mxCell>
                <UserObject label="Paper Citation Count" treeRoot="1" id="49">
                    <mxCell style="whiteSpace=wrap;html=1;align=center;treeFolding=1;treeMoving=1;newEdgeStyle={&quot;edgeStyle&quot;:&quot;elbowEdgeStyle&quot;,&quot;startArrow&quot;:&quot;none&quot;,&quot;endArrow&quot;:&quot;none&quot;};rounded=1;" vertex="1" parent="34">
                        <mxGeometry x="160" y="40" width="130" height="30" as="geometry"/>
                    </mxCell>
                </UserObject>
                <mxCell id="52" value="Feature Weighting" style="rounded=1;whiteSpace=wrap;html=1;" vertex="1" parent="34">
                    <mxGeometry x="210" y="110" width="310" height="40" as="geometry"/>
                </mxCell>
                <mxCell id="57" style="edgeStyle=elbowEdgeStyle;html=1;startArrow=none;endArrow=none;exitX=0.5;exitY=1;exitDx=0;exitDy=0;entryX=1;entryY=0.5;entryDx=0;entryDy=0;" edge="1" parent="34" source="42" target="52">
                    <mxGeometry relative="1" as="geometry">
                        <mxPoint x="530" y="120" as="targetPoint"/>
                        <Array as="points">
                            <mxPoint x="645" y="130"/>
                        </Array>
                    </mxGeometry>
                </mxCell>
                <mxCell id="60" value="Hybrid Recommender" style="swimlane;startSize=20;horizontal=1;containerType=tree;newEdgeStyle={&quot;edgeStyle&quot;:&quot;elbowEdgeStyle&quot;,&quot;startArrow&quot;:&quot;none&quot;,&quot;endArrow&quot;:&quot;none&quot;};" vertex="1" parent="1">
                    <mxGeometry x="490" y="310" width="670" height="370" as="geometry">
                        <mxRectangle x="200" y="260" width="90" height="30" as="alternateBounds"/>
                    </mxGeometry>
                </mxCell>
                <mxCell id="73" value="Citation Recommender" style="rounded=1;whiteSpace=wrap;html=1;" vertex="1" parent="60">
                    <mxGeometry x="75" y="32.5" width="120" height="65" as="geometry"/>
                </mxCell>
                <mxCell id="78" value="" style="edgeStyle=none;html=1;" edge="1" source="73" target="79" parent="60">
                    <mxGeometry relative="1" as="geometry"/>
                </mxCell>
                <mxCell id="79" value="Candidate List" style="rounded=1;whiteSpace=wrap;html=1;" vertex="1" parent="60">
                    <mxGeometry x="35" y="137.5" width="200" height="22.5" as="geometry"/>
                </mxCell>
                <mxCell id="80" value="" style="edgeStyle=none;html=1;" edge="1" target="81" source="79" parent="60">
                    <mxGeometry relative="1" as="geometry">
                        <mxPoint x="305" y="627.5" as="sourcePoint"/>
                    </mxGeometry>
                </mxCell>
                <mxCell id="81" value="Language Recommender" style="rounded=1;whiteSpace=wrap;html=1;" vertex="1" parent="60">
                    <mxGeometry x="75" y="211.25" width="120" height="65" as="geometry"/>
                </mxCell>
                <mxCell id="82" value="" style="edgeStyle=none;html=1;" edge="1" target="83" source="81" parent="60">
                    <mxGeometry relative="1" as="geometry">
                        <mxPoint x="305" y="701.25" as="sourcePoint"/>
                    </mxGeometry>
                </mxCell>
                <mxCell id="83" value="Final Recommendations" style="rounded=1;whiteSpace=wrap;html=1;" vertex="1" parent="60">
                    <mxGeometry x="30" y="316.25" width="210" height="22.5" as="geometry"/>
                </mxCell>
                <mxCell id="96" value="" style="edgeStyle=none;html=1;" edge="1" parent="60" target="97">
                    <mxGeometry relative="1" as="geometry">
                        <mxPoint x="540" y="97.5" as="sourcePoint"/>
                    </mxGeometry>
                </mxCell>
                <mxCell id="97" value="Candidate List" style="rounded=1;whiteSpace=wrap;html=1;" vertex="1" parent="60">
                    <mxGeometry x="440" y="137.5" width="200" height="22.5" as="geometry"/>
                </mxCell>
                <mxCell id="98" value="" style="edgeStyle=none;html=1;" edge="1" parent="60" source="97" target="99">
                    <mxGeometry relative="1" as="geometry">
                        <mxPoint x="540" y="97.5" as="sourcePoint"/>
                    </mxGeometry>
                </mxCell>
                <mxCell id="99" value="Citation Recommender" style="rounded=1;whiteSpace=wrap;html=1;" vertex="1" parent="60">
                    <mxGeometry x="480" y="211.25" width="120" height="65" as="geometry"/>
                </mxCell>
                <mxCell id="100" value="" style="edgeStyle=none;html=1;" edge="1" parent="60" source="99">
                    <mxGeometry relative="1" as="geometry">
                        <mxPoint x="540" y="171.25" as="sourcePoint"/>
                        <mxPoint x="540" y="316.25" as="targetPoint"/>
                    </mxGeometry>
                </mxCell>
                <mxCell id="101" value="Final Recommendations" style="rounded=1;whiteSpace=wrap;html=1;" vertex="1" parent="60">
                    <mxGeometry x="440" y="316.25" width="210" height="22.5" as="geometry"/>
                </mxCell>
                <mxCell id="102" value="Language Recommender" style="rounded=1;whiteSpace=wrap;html=1;" vertex="1" parent="60">
                    <mxGeometry x="480" y="32.5" width="120" height="65" as="geometry"/>
                </mxCell>
                <mxCell id="104" value="" style="shape=flexArrow;endArrow=classic;startArrow=classic;html=1;" edge="1" parent="60">
                    <mxGeometry width="100" height="100" relative="1" as="geometry">
                        <mxPoint x="270" y="184.41" as="sourcePoint"/>
                        <mxPoint x="400" y="184.41" as="targetPoint"/>
                        <Array as="points"/>
                    </mxGeometry>
                </mxCell>
            </root>
        </mxGraphModel>
    </diagram>
</mxfile>